<?xml version="1.0" encoding="utf-8"?>
<!-- Generator: Adobe Illustrator 27.8.1, SVG Export Plug-In . SVG Version: 6.00 Build 0)  -->
<svg version="1.1" id="Layer_1" xmlns="http://www.w3.org/2000/svg" xmlns:xlink="http://www.w3.org/1999/xlink" x="0px" y="0px"
	 viewBox="0 0 808.8 272" style="enable-background:new 0 0 808.8 272;" xml:space="preserve">
<style type="text/css">
	.st0{fill:#FFFFFF;}
</style>
<path class="st0" d="M429.3,216.9c-3.6-2-8.2-0.8-10.2,2.5c-1.2,2.1-3.6,3.5-6.4,3.5c-4.2,0-7.4-3.1-7.4-7v-27.9c0-3.9,3.3-7,7.4-7
	c2.8,0,5.2,1.4,6.4,3.5c2.1,3.4,6.7,4.5,10.2,2.5c3.6-2,4.7-6.1,2.7-9.5c-3.9-6.3-11-10.5-19.3-10.5c-12.3,0-22.2,9.4-22.2,20.9V216
	c0,11.6,9.9,20.9,22.2,20.9c8.3,0,15.4-4.2,19.3-10.5C434.1,223.1,432.9,218.9,429.3,216.9"/>
<path class="st0" d="M357.7,167c-8.3,0-15.4,4.2-19.3,10.5c-2.1,3.4-0.9,7.5,2.7,9.5c3.6,2,8.2,0.8,10.2-2.5
	c1.2-2.1,3.6-3.5,6.4-3.5c4.2,0,7.4,3.1,7.4,7v7h-7.4h0c-12.3,0-22.2,9.4-22.2,20.9c0,11.6,9.9,20.9,22.2,20.9c3.4,0,6.7-0.7,9.6-2
	c1.3,1.3,3.1,2,5.2,2c4.2,0,7.4-3.1,7.4-7v-41.9C379.9,176.3,370,167,357.7,167 M365.1,215.8L365.1,215.8c0,3.9-3.3,7-7.4,7
	c-4.2,0-7.4-3.1-7.4-7c0-3.9,3.3-7,7.4-7h7.4V215.8z"/>
<path class="st0" d="M439.8,187.5c0-11.7,10-21.1,22.4-21.1c12.4,0,22.4,9.4,22.4,21.1v14.1c0,3.9-3.3,7-7.5,7h-22.4v7
	c0,3.9,3.3,7,7.5,7c2.8,0,5.2-1.4,6.4-3.5c2.1-3.4,6.7-4.5,10.3-2.5c3.6,2,4.8,6.2,2.7,9.6c-3.9,6.3-11.1,10.6-19.4,10.6
	c-12.4,0-22.4-9.4-22.4-21.1V187.5z M469.7,194.5v-7c0-3.9-3.3-7-7.5-7c-4.2,0-7.5,3.1-7.5,7v7H469.7z"/>
<path class="st0" d="M309.1,166.4c2.1,0,3.9,0.7,5.2,2c3-1.3,6.3-2,9.7-2c4.2,0,7.5,3.1,7.5,7c0,3.9-3.3,7-7.5,7s-7.5,3.1-7.5,7
	v42.2c0,3.9-3.3,7-7.5,7c-4.2,0-7.5-3.1-7.5-7v-56.3C301.6,169.5,304.9,166.4,309.1,166.4"/>
<path class="st0" d="M503.3,166.4c2.1,0,3.9,0.7,5.2,2c3-1.3,6.3-2,9.7-2c4.2,0,7.5,3.1,7.5,7c0,3.9-3.3,7-7.5,7s-7.5,3.1-7.5,7
	v42.2c0,3.9-3.3,7-7.5,7s-7.5-3.1-7.5-7v-56.3C495.9,169.5,499.2,166.4,503.3,166.4"/>
<g>
	<path class="st0" d="M207.6,64.5c-19.1-19.1-44.5-29.6-71.5-29.6S83.6,45.4,64.5,64.5C45.4,83.6,34.9,109,34.9,136
		c0,18.3,4.7,36,14,52.6l0.1,0.1c0.1,0.2,2.3,4,5.2,8.1c5.7,8.3,8.9,10.5,11,11.4c0.2,0.1,0.4,0.2,0.6,0.2c1,0.6,2.1,0.9,3.2,0.9
		c1.6,0,3.3-0.6,4.5-1.8l33.3-32.2c8.2,6.1,18.3,9.7,29.3,9.7c27,0,48.9-22,48.9-48.9s-22-48.9-48.9-48.9S87.1,109,87.1,136
		c0,11.3,3.9,21.8,10.4,30.1L87.2,176c-1.7-2.2-3.7-5.1-5.5-7.9C76,158.4,73,147.3,73,136c0-34.8,28.3-63.1,63.1-63.1
		s63.1,28.3,63.1,63.1s-28.3,63.1-63.1,63.1c-8.7,0-17-1.7-24.9-5.1c-3.1-1.3-6.8,0.1-8.1,3.2c-1.3,3.1,0.1,6.8,3.2,8.1
		c9.4,4.1,19.4,6.1,29.8,6.1c41.6,0,75.4-33.8,75.4-75.4s-33.8-75.4-75.4-75.4S60.6,94.4,60.6,136c0,13.5,3.6,26.8,10.5,38.4
		l0.1,0.2c0.1,0.1,2.2,3.4,4.7,6.9c0.9,1.2,1.7,2.3,2.4,3.2l-10.3,10c-2.4-2.8-5.6-7.5-8.3-12.2c-8.2-14.7-12.4-30.3-12.4-46.5
		c0-23.7,9.2-46,26-62.8s39.1-26,62.8-26s46,9.2,62.8,26s26,39.1,26,62.8s-9.2,46-26,62.8s-39.1,26-62.8,26c-3.2,0-6.5-0.2-9.6-0.5
		c-3.4-0.4-6.4,2.1-6.8,5.5c-0.4,3.4,2.1,6.4,5.5,6.8c3.6,0.4,7.3,0.6,10.9,0.6c27,0,52.4-10.5,71.5-29.6
		c19.1-19.1,29.6-44.5,29.6-71.5S226.7,83.6,207.6,64.5z M136.1,99.4c20.2,0,36.6,16.4,36.6,36.6s-16.4,36.6-36.6,36.6
		S99.4,156.2,99.4,136S115.9,99.4,136.1,99.4z"/>
	<circle class="st0" cx="136.1" cy="136" r="18.7"/>
</g>
<path class="st0" d="M299.6,99.2c-3.6-2-8.2-0.8-10.3,2.5c-1.2,2.1-3.6,3.5-6.4,3.5c-4.2,0-7.5-3.1-7.5-7V70.1c0-3.9,3.3-7,7.5-7
	c2.8,0,5.2,1.4,6.4,3.5c2.1,3.4,6.7,4.5,10.3,2.5c3.6-2,4.8-6.2,2.7-9.6c-3.9-6.3-11.1-10.6-19.4-10.6c-12.4,0-22.4,9.4-22.4,21.1
	v28.2c0,11.7,10,21.1,22.4,21.1c8.4,0,15.6-4.2,19.4-10.6C304.4,105.4,303.2,101.2,299.6,99.2"/>
<path class="st0" d="M718.1,99.2c-3.6-2-8.2-0.8-10.3,2.5c-1.2,2.1-3.6,3.5-6.4,3.5c-4.2,0-7.5-3.1-7.5-7V70.1c0-3.9,3.3-7,7.5-7
	c2.8,0,5.2,1.4,6.4,3.5c2.1,3.4,6.7,4.5,10.3,2.5c3.6-2,4.8-6.2,2.7-9.6c-3.9-6.3-11.1-10.6-19.4-10.6c-12.4,0-22.4,9.4-22.4,21.1
	v28.2c0,11.7,10,21.1,22.4,21.1c8.4,0,15.6-4.2,19.4-10.6C722.9,105.4,721.7,101.2,718.1,99.2"/>
<path class="st0" d="M423,70.1c0-11.7,10-21.1,22.4-21.1c12.4,0,22.4,9.4,22.4,21.1v14.1c0,3.9-3.3,7-7.5,7h-22.4v7
	c0,3.9,3.3,7,7.5,7c2.8,0,5.2-1.4,6.4-3.5c2.1-3.4,6.7-4.5,10.3-2.5c3.6,2,4.8,6.2,2.7,9.6c-3.9,6.3-11.1,10.6-19.4,10.6
	c-12.4,0-22.4-9.4-22.4-21.1V70.1z M452.9,77.1v-7c0-3.9-3.3-7-7.5-7c-4.2,0-7.5,3.1-7.5,7v7H452.9z"/>
<path class="st0" d="M348.2,48.9c-4.2,0-7.5,3.1-7.5,7v35.2c0,3.9-3.3,7-7.5,7c-4.2,0-7.5-3.1-7.5-7V56c0-3.9-3.3-7-7.5-7
	c-4.2,0-7.5,3.1-7.5,7v35.2c0,11.7,10,21.1,22.4,21.1c2.7,0,5.1-0.4,7.5-1.1v1.1c0,3.9-3.3,7-7.5,7h0c-4.1,0-7.5,3.2-7.5,7
	s3.3,7,7.5,7c12.4,0,22.4-9.4,22.4-21.1V56C355.7,52,352.4,48.9,348.2,48.9"/>
<path class="st0" d="M411.8,70.1v28.2c0,11.7-10,21.1-22.4,21.1c-3.4,0-6.7-0.7-9.7-2c-1.3,1.3-3.1,2-5.2,2c-4.2,0-7.5-3.1-7.5-7
	V41.9c0-3.9,3.3-7,7.5-7c4.2,0,7.5,3.1,7.5,7v8.2c2.4-0.7,4.8-1.1,7.5-1.1C401.7,48.9,411.8,58.4,411.8,70.1 M389.3,105.3
	c4.2,0,7.5-3.1,7.5-7V70.1c0-3.9-3.3-7-7.5-7c-4.2,0-7.5,3.1-7.5,7v28.2C381.9,102.2,385.1,105.3,389.3,105.3"/>
<path class="st0" d="M486.5,48.9c2.1,0,3.9,0.7,5.2,2c3-1.3,6.3-2,9.7-2c4.2,0,7.5,3.1,7.5,7c0,3.9-3.3,7-7.5,7
	c-4.2,0-7.5,3.1-7.5,7v42.2c0,3.9-3.3,7-7.5,7c-4.2,0-7.5-3.1-7.5-7V56C479.1,52,482.4,48.9,486.5,48.9"/>
<path class="st0" d="M515.9,56.2c0-3.9,3.3-7,7.4-7c2.1,0,3.9,0.7,5.2,2c3-1.3,6.2-2,9.6-2c12.3,0,22.3,9.4,22.3,21v28
	c0,11.6-9.9,21-22.3,21c-2.7,0-5-0.4-7.4-1.1v8.1c0,3.9-3.3,7-7.4,7s-7.4-3.1-7.4-7V56.2z M538.2,105.1c4.2,0,7.4-3.1,7.4-7v-28
	c0-3.9-3.3-7-7.4-7s-7.4,3.1-7.4,7v28C530.8,102,534.1,105.1,538.2,105.1"/>
<path class="st0" d="M645.7,49.2c-8.3,0-15.4,4.2-19.3,10.5c-2.1,3.4-0.9,7.5,2.7,9.5c3.6,2,8.2,0.8,10.2-2.5
	c1.2-2.1,3.6-3.5,6.4-3.5c4.2,0,7.4,3.1,7.4,7v7h-7.4h0c-12.3,0-22.3,9.4-22.3,21s9.9,21,22.3,21c3.4,0,6.7-0.7,9.6-2
	c1.3,1.3,3.1,2,5.2,2c4.2,0,7.4-3.1,7.4-7V70.2C667.9,58.6,658,49.2,645.7,49.2 M653.1,98.1L653.1,98.1c0,3.9-3.3,7-7.4,7
	c-4.2,0-7.4-3.1-7.4-7c0-3.9,3.3-7,7.4-7h7.4V98.1z"/>
<path class="st0" d="M571.4,70.1c0-11.7,10-21.1,22.4-21.1c12.4,0,22.4,9.4,22.4,21.1v14.1c0,3.9-3.3,7-7.5,7h-22.4v7
	c0,3.9,3.3,7,7.5,7c2.8,0,5.2-1.4,6.4-3.5c2.1-3.4,6.7-4.5,10.3-2.5c3.6,2,4.8,6.2,2.7,9.6c-3.9,6.3-11.1,10.6-19.4,10.6
	c-12.4,0-22.4-9.4-22.4-21.1V70.1z M601.4,77.1v-7c0-3.9-3.3-7-7.5-7c-4.2,0-7.5,3.1-7.5,7v7H601.4z"/>
<path class="st0" d="M729.1,70.1c0-11.7,10-21.1,22.4-21.1c12.4,0,22.4,9.4,22.4,21.1v14.1c0,3.9-3.3,7-7.5,7H744v7
	c0,3.9,3.3,7,7.5,7c2.8,0,5.2-1.4,6.4-3.5c2.1-3.4,6.7-4.5,10.3-2.5c3.6,2,4.8,6.2,2.7,9.6c-3.9,6.3-11.1,10.6-19.4,10.6
	c-12.4,0-22.4-9.4-22.4-21.1V70.1z M759,77.1v-7c0-3.9-3.3-7-7.5-7c-4.2,0-7.5,3.1-7.5,7v7H759z"/>
<path class="st0" d="M275.8,166.9c2.1,0,3.8,0,5.5,0c4.6,0.2,7.7,3.3,7.7,7.7c0,4.5-3.2,7.7-7.8,7.9c-1.6,0-3.3,0-5.3,0
	c-0.2,0.2-0.2,1.3-0.2,1.3s0,2.6,0,2.7c0,9.4,0,18.8,0,28.1c0,4.5,1.5,6.1,5.9,6.6c4.7,0.6,7.7,4.1,7.3,8.7c-0.4,4.3-4.1,7.3-8.7,7
	c-11.3-0.7-19.9-9.8-19.9-21.2c-0.1-19.2,0-36,0-55.2c0-5,3.2-8.2,7.7-8.2c4.5,0,7.6,3.4,7.7,8.3
	C275.8,163.6,275.8,163.4,275.8,166.9z"/>
<path class="st0" d="M423,70.1c0-11.7,10-21.1,22.4-21.1c12.4,0,22.4,9.4,22.4,21.1v14.1c0,3.9-3.3,7-7.5,7h-22.4v7
	c0,3.9,3.3,7,7.5,7c2.8,0,5.2-1.4,6.4-3.5c2.1-3.4,6.7-4.5,10.3-2.5c3.6,2,4.8,6.2,2.7,9.6c-3.9,6.3-11.1,10.6-19.4,10.6
	c-12.4,0-22.4-9.4-22.4-21.1V70.1z M452.9,77.1v-7c0-3.9-3.3-7-7.5-7c-4.2,0-7.5,3.1-7.5,7v7H452.9z"/>
</svg>
