<?xml version="1.0" standalone="no"?>
<!DOCTYPE svg PUBLIC "-//W3C//DTD SVG 20010904//EN"
 "http://www.w3.org/TR/2001/REC-SVG-20010904/DTD/svg10.dtd">
<svg version="1.0" xmlns="http://www.w3.org/2000/svg"
 width="3371.000000pt" height="1134.000000pt" viewBox="0 0 3371.000000 1134.000000"
 preserveAspectRatio="xMidYMid meet">

<g transform="translate(0.000000,1134.000000) scale(0.100000,-0.100000)"
fill="#000000" stroke="none">
<path d="M5415 9880 c-363 -24 -712 -90 -1040 -197 -623 -203 -1167 -531
-1634 -988 -366 -358 -615 -696 -834 -1135 -200 -398 -323 -777 -391 -1200
-37 -227 -46 -329 -53 -585 -19 -716 132 -1395 456 -2051 181 -369 414 -717
612 -915 79 -80 110 -103 184 -140 81 -40 95 -44 164 -44 59 0 86 5 121 23 30
15 274 244 749 705 l704 684 96 -65 c199 -133 479 -249 716 -297 447 -90 890
-34 1300 165 614 297 1040 889 1130 1568 17 131 20 380 4 502 -47 380 -196
738 -429 1029 -379 473 -922 747 -1521 768 -350 12 -655 -52 -964 -202 -749
-363 -1204 -1146 -1145 -1969 28 -388 169 -775 392 -1075 l33 -43 -210 -204
c-115 -112 -212 -203 -215 -203 -7 0 -54 65 -154 212 -226 330 -365 704 -421
1130 -18 138 -20 461 -4 605 84 765 499 1451 1144 1891 262 179 548 305 860
379 190 45 317 62 525 69 983 32 1881 -475 2375 -1339 154 -271 257 -573 312
-914 26 -159 25 -583 -1 -749 -42 -275 -119 -520 -241 -770 -124 -255 -271
-466 -464 -667 -419 -438 -961 -712 -1571 -794 -150 -20 -468 -23 -615 -5
-233 28 -480 89 -684 171 -129 51 -164 56 -236 35 -181 -52 -245 -271 -121
-412 47 -54 106 -83 314 -154 600 -205 1239 -223 1857 -54 389 107 803 320
1130 582 200 159 435 410 591 628 407 569 616 1291 574 1985 -34 577 -203
1087 -514 1560 -122 184 -230 316 -405 491 -264 264 -500 433 -826 594 -459
226 -878 325 -1386 325 -223 0 -346 -9 -534 -41 -1121 -188 -2072 -995 -2440
-2070 -122 -355 -169 -640 -169 -1024 0 -414 57 -734 196 -1105 116 -310 273
-584 516 -900 l20 -25 -215 -208 -214 -209 -50 64 c-317 405 -573 934 -703
1453 -126 504 -146 1082 -55 1588 239 1329 1200 2432 2491 2858 213 70 440
121 698 156 193 26 717 26 910 0 599 -81 1105 -270 1590 -593 927 -617 1519
-1594 1635 -2698 17 -169 20 -556 5 -721 -69 -737 -339 -1402 -809 -1990 -119
-149 -379 -412 -529 -533 -749 -608 -1626 -889 -2597 -832 -209 12 -227 12
-271 -5 -94 -36 -152 -113 -161 -216 -10 -104 37 -194 126 -243 76 -41 175
-50 546 -51 345 0 425 6 705 51 1135 182 2170 852 2814 1824 121 182 167 262
269 465 403 806 532 1752 361 2655 -140 742 -473 1425 -972 1990 -714 810
-1665 1302 -2734 1414 -181 20 -524 27 -693 16z m413 -2691 c465 -50 873 -300
1125 -689 109 -169 188 -366 224 -560 27 -145 24 -421 -6 -560 -68 -318 -199
-560 -425 -785 -298 -297 -655 -445 -1071 -445 -254 0 -480 54 -694 166 -409
213 -692 578 -797 1029 -26 111 -28 135 -28 325 0 174 3 220 22 307 116 534
490 959 998 1136 214 75 433 100 652 76z"/>
<path d="M5515 6434 c-87 -19 -203 -68 -277 -118 -88 -58 -198 -181 -248 -277
-66 -126 -81 -185 -87 -334 -5 -112 -2 -143 16 -215 38 -150 115 -285 217
-380 421 -392 1093 -223 1275 320 38 114 50 265 29 376 -54 297 -276 540 -565
619 -88 23 -274 28 -360 9z"/>
<path d="M15533 9880 c-22 -5 -59 -18 -81 -29 -50 -25 -127 -110 -144 -159
-11 -30 -13 -327 -13 -1562 0 -1472 1 -1527 19 -1574 66 -171 294 -241 459
-142 52 31 56 32 87 19 125 -52 368 -77 519 -54 170 27 352 109 478 218 124
105 229 268 275 429 l23 79 0 730 c0 824 4 777 -80 952 -128 264 -375 444
-684 498 -136 24 -258 18 -437 -20 l-32 -7 -4 198 c-4 182 -6 204 -27 252 -56
126 -215 202 -358 172z m834 -1198 c63 -33 111 -79 141 -136 l27 -51 3 -639
c3 -721 4 -707 -69 -790 -51 -58 -107 -91 -181 -106 -137 -27 -283 42 -343
163 l-25 53 2 665 c3 638 4 666 23 704 28 57 97 121 158 144 71 29 202 25 264
-7z"/>
<path d="M11617 9285 c-354 -67 -628 -306 -729 -637 -22 -72 -22 -81 -26 -773
-4 -756 -3 -776 49 -919 99 -273 330 -473 649 -563 100 -28 375 -25 485 5 89
25 220 84 293 133 108 74 227 202 274 296 96 195 -46 414 -271 416 -126 1
-203 -39 -285 -149 -42 -57 -64 -75 -119 -103 -60 -31 -76 -35 -146 -35 -65 0
-88 5 -133 27 -66 33 -120 85 -150 146 l-23 46 -3 639 c-3 721 -4 707 69 790
23 26 65 59 93 74 45 23 62 27 146 27 138 0 192 -29 283 -155 43 -58 98 -95
174 -116 199 -54 396 85 395 281 0 71 -17 116 -76 199 -122 171 -314 299 -532
357 -105 27 -309 34 -417 14z"/>
<path d="M13175 9287 c-65 -22 -99 -43 -141 -89 -79 -86 -75 -29 -72 -978 l3
-845 36 -102 c82 -233 229 -397 454 -508 127 -63 238 -93 377 -102 101 -6 245
8 327 33 l44 13 -5 -69 c-6 -80 -34 -136 -99 -194 -55 -51 -95 -66 -202 -77
-142 -15 -229 -64 -282 -161 -26 -46 -30 -63 -30 -133 0 -95 25 -155 88 -212
71 -64 117 -78 247 -77 363 2 700 222 835 544 68 161 65 85 65 1482 l0 1263
-24 50 c-29 62 -86 117 -151 147 -69 31 -199 32 -266 2 -66 -31 -114 -78 -146
-142 l-28 -57 -5 -810 -5 -810 -27 -47 c-61 -102 -159 -158 -278 -158 -119 0
-217 56 -278 158 l-27 47 -5 810 c-5 797 -5 811 -26 856 -50 108 -144 170
-267 175 -42 2 -89 -2 -112 -9z"/>
<path d="M18360 9281 c-189 -41 -340 -123 -474 -256 -96 -96 -153 -180 -200
-299 -57 -142 -57 -145 -54 -925 l3 -716 34 -97 c120 -347 420 -578 801 -618
316 -32 638 98 835 338 139 168 151 314 34 437 -68 73 -130 99 -235 99 -73 1
-87 -2 -150 -34 -57 -29 -77 -47 -125 -110 -41 -55 -71 -83 -110 -105 -50 -28
-62 -30 -154 -30 -85 0 -106 3 -142 23 -66 35 -110 79 -140 139 -26 54 -27 65
-31 235 l-4 178 500 0 c486 0 503 1 559 21 76 28 153 105 177 177 15 45 17 94
14 439 -3 320 -7 398 -20 443 -80 272 -235 459 -481 580 -145 71 -230 92 -407
96 -115 3 -163 0 -230 -15z m342 -600 c62 -30 115 -83 144 -145 22 -48 24 -63
24 -228 l0 -178 -311 0 -311 0 4 178 c5 189 12 219 63 286 33 43 91 84 147
102 62 20 181 13 240 -15z"/>
<path d="M20185 9286 c-64 -20 -98 -42 -141 -88 -80 -87 -75 19 -72 -1378 3
-1217 3 -1246 23 -1285 29 -60 97 -121 163 -145 46 -18 72 -21 137 -18 98 6
164 36 224 104 74 85 71 37 71 1069 0 1037 -4 975 76 1064 60 67 115 92 227
103 146 14 237 67 287 165 34 66 36 197 3 258 -30 56 -89 110 -148 136 -98 43
-273 35 -449 -21 l-88 -29 -38 25 c-77 51 -189 67 -275 40z"/>
<path d="M24605 9291 c-151 -25 -330 -100 -442 -185 -162 -123 -277 -297 -323
-489 -19 -78 -20 -120 -20 -782 0 -665 1 -704 20 -783 76 -315 325 -562 661
-654 72 -20 108 -23 249 -23 142 0 177 3 250 23 175 48 322 134 441 258 160
168 196 286 128 422 -53 107 -152 165 -279 165 -119 0 -210 -49 -276 -148 -62
-93 -147 -138 -264 -138 -123 -1 -219 53 -275 155 -30 53 -30 54 -33 240 l-4
187 509 3 c506 3 508 3 558 26 65 30 122 85 151 147 24 50 24 51 24 435 0 407
-3 441 -51 570 -57 155 -182 312 -326 411 -71 49 -221 116 -313 139 -94 24
-297 35 -385 21z m258 -597 c57 -19 140 -92 170 -148 20 -37 22 -58 25 -228
l4 -188 -312 0 -312 0 4 188 c3 170 5 191 25 228 29 54 113 129 166 147 57 21
172 21 230 1z"/>
<path d="M29048 9285 c-300 -57 -549 -244 -673 -508 -19 -39 -45 -108 -57
-152 -22 -78 -22 -94 -26 -740 -2 -436 1 -688 8 -742 47 -355 312 -647 677
-744 112 -30 322 -37 434 -14 264 53 477 191 608 395 66 102 77 177 40 274
-26 70 -106 147 -181 172 -122 42 -273 5 -348 -85 -94 -112 -116 -132 -167
-158 -46 -22 -69 -27 -132 -27 -127 0 -235 63 -286 168 l-25 52 2 665 c3 751
-2 700 86 786 122 119 353 109 456 -21 118 -148 172 -180 301 -181 127 0 224
54 279 155 39 72 45 156 17 230 -28 75 -135 207 -227 280 -94 75 -251 153
-364 180 -112 28 -316 35 -422 15z"/>
<path d="M31139 9285 c-296 -56 -551 -248 -674 -506 -19 -41 -45 -110 -57
-154 -22 -78 -22 -94 -26 -730 -2 -414 0 -683 7 -740 42 -360 309 -658 678
-756 112 -30 322 -37 434 -14 212 43 379 133 516 278 65 69 130 168 144 221
15 55 6 143 -19 193 -30 57 -112 128 -175 150 -121 41 -272 4 -347 -86 -94
-112 -116 -132 -167 -158 -46 -22 -69 -27 -132 -27 -121 0 -222 55 -279 153
-26 45 -27 50 -30 238 l-4 192 509 3 508 3 53 24 c66 30 135 105 157 171 14
43 16 98 13 442 -4 371 -5 397 -26 466 -52 170 -159 330 -296 440 -95 76 -251
154 -366 182 -112 28 -316 35 -421 15z m327 -608 c67 -34 130 -106 149 -170
11 -36 15 -98 15 -214 l0 -163 -311 0 -310 0 3 188 c3 213 9 235 86 309 63 62
127 84 232 80 68 -3 95 -9 136 -30z"/>
<path d="M21735 9281 c-89 -22 -163 -80 -202 -159 l-28 -57 0 -1525 0 -1525
24 -48 c13 -26 45 -67 72 -91 67 -60 128 -80 233 -74 125 6 202 55 259 162 20
38 22 57 25 249 l3 209 27 -7 c131 -34 318 -44 442 -24 103 16 245 68 332 120
205 123 335 288 405 514 l27 90 4 673 c3 574 1 685 -13 763 -66 386 -379 675
-791 730 -147 19 -352 -4 -481 -56 -39 -16 -41 -16 -78 9 -70 48 -176 67 -260
47z m829 -604 c70 -32 107 -66 141 -129 l30 -53 0 -660 0 -660 -27 -51 c-31
-59 -84 -108 -147 -138 -35 -16 -66 -21 -131 -21 -73 0 -93 4 -142 28 -61 30
-105 74 -140 140 l-23 42 0 655 c0 647 0 656 21 701 70 151 261 218 418 146z"/>
<path d="M26737 9274 c-227 -41 -433 -161 -569 -332 -101 -127 -126 -211 -93
-316 38 -119 142 -196 277 -204 129 -8 215 34 292 143 53 73 105 110 187 131
144 37 296 -32 361 -165 21 -43 23 -59 23 -226 l0 -180 -245 -6 c-228 -5 -251
-8 -333 -32 -171 -52 -304 -134 -423 -260 -324 -340 -307 -870 38 -1192 114
-108 227 -171 393 -221 82 -25 104 -28 260 -28 174 0 258 13 367 58 34 14 38
14 63 -5 44 -36 120 -59 190 -59 125 0 230 62 282 168 l28 57 0 965 c0 965 0
965 -22 1045 -13 44 -46 127 -75 185 -46 94 -63 116 -157 210 -122 121 -207
174 -359 226 -159 54 -325 67 -485 38z m481 -1912 c-3 -176 -3 -179 -33 -237
-147 -287 -608 -168 -583 149 7 78 34 132 97 188 75 68 113 77 334 77 l189 1
-4 -178z"/>
<path d="M11051 4973 c-64 -23 -143 -104 -172 -178 l-24 -60 -3 -1089 c-3
-1235 2 -1427 43 -1556 84 -262 266 -459 515 -559 279 -111 518 -65 607 117
24 50 28 69 28 147 0 83 -3 95 -34 153 -55 101 -134 151 -281 177 -44 8 -96
22 -115 31 -46 21 -91 74 -104 121 -7 25 -11 284 -11 751 l0 712 132 0 c148 0
218 15 283 58 161 111 180 360 37 499 -68 66 -129 85 -304 91 l-148 5 0 136
c-1 259 -47 367 -185 433 -51 24 -72 28 -140 27 -45 0 -99 -7 -124 -16z"/>
<path d="M12799 4396 c-67 -18 -136 -62 -170 -108 -62 -86 -59 -25 -59 -1348
0 -1364 -5 -1273 78 -1362 56 -60 98 -83 178 -97 138 -25 275 40 341 162 17
30 18 98 23 992 l5 960 24 49 c53 108 141 163 283 176 198 19 313 127 311 295
0 85 -19 130 -79 195 -69 74 -126 95 -254 94 -112 -1 -180 -12 -302 -50 l-77
-24 -46 29 c-76 48 -167 61 -256 37z"/>
<path d="M19114 4395 c-323 -50 -599 -259 -718 -544 -62 -146 -60 -113 -63
-872 -4 -658 -3 -702 16 -792 55 -271 241 -501 505 -622 429 -199 959 -55
1207 328 50 77 66 149 50 221 -34 153 -163 244 -330 234 -95 -6 -163 -38 -218
-104 -129 -155 -167 -178 -298 -179 -95 0 -169 29 -228 90 -73 75 -82 107 -85
312 l-4 182 519 3 518 3 51 27 c66 35 126 104 147 169 24 73 25 691 2 825 -28
156 -105 308 -219 431 -146 157 -334 255 -556 288 -112 18 -186 18 -296 0z
m291 -606 c62 -29 115 -82 146 -145 22 -46 24 -59 24 -229 l0 -180 -310 0
-310 0 -3 150 c-1 82 2 173 8 201 21 98 103 187 204 220 62 21 180 12 241 -17z"/>
<path d="M20874 4390 c-79 -26 -153 -91 -183 -159 l-21 -50 2 -1253 3 -1253
27 -45 c58 -99 156 -154 273 -153 100 1 169 29 233 97 87 91 82 30 82 1081 0
1030 -4 974 71 1059 57 64 126 95 240 107 114 11 182 41 238 105 101 115 95
281 -14 390 -69 69 -128 89 -255 88 -111 -2 -193 -16 -293 -50 l-72 -24 -70
35 c-91 46 -173 54 -261 25z"/>
<path d="M14744 4370 c-147 -27 -311 -98 -423 -184 -123 -95 -232 -239 -251
-332 -48 -230 207 -413 438 -314 49 21 92 61 169 158 19 24 57 52 90 69 50 24
70 28 143 28 73 0 93 -4 142 -28 64 -32 111 -80 142 -146 18 -40 21 -69 24
-223 l4 -178 -185 0 c-211 0 -306 -11 -422 -47 -329 -104 -563 -363 -620 -688
-19 -110 -19 -170 0 -280 18 -102 51 -191 108 -290 52 -91 207 -245 302 -301
259 -151 555 -180 841 -82 l62 21 30 -22 c76 -54 202 -70 299 -37 69 23 144
91 174 158 l24 53 0 950 c0 886 -1 955 -18 1028 -63 269 -231 477 -482 599
-144 69 -231 90 -400 94 -77 1 -163 -1 -191 -6z m471 -1915 c0 -176 -1 -181
-27 -231 -34 -66 -106 -128 -169 -149 -70 -24 -188 -17 -250 13 -247 120 -213
465 53 536 38 11 101 14 223 13 l170 -2 0 -180z"/>
<path d="M17085 4370 c-388 -49 -701 -318 -786 -675 -19 -82 -20 -113 -17
-803 l3 -717 24 -70 c109 -324 362 -547 701 -617 134 -28 327 -21 455 16 174
51 323 141 434 262 122 132 165 236 142 338 -42 187 -253 286 -439 206 -49
-21 -92 -61 -169 -158 -67 -83 -209 -122 -324 -88 -78 23 -147 79 -184 151
l-30 59 0 645 0 646 23 51 c47 105 142 167 262 172 132 7 207 -29 284 -135 73
-99 154 -144 265 -146 100 -1 164 25 233 93 97 97 112 208 45 335 -44 83 -210
249 -304 304 -181 107 -415 156 -618 131z"/>
</g>
</svg>
